<?xml version="1.0" encoding="UTF-8"?>
<svg version="1.1" viewBox="0 0 2048 472" width="2741" height="633" xmlns="http://www.w3.org/2000/svg">
<path transform="translate(369,66)" d="m0 0h1679v27h-1679z" fill="#FEFEFE"/>
<path transform="translate(857,153)" d="m0 0h79l11 2 16 8 9 8 8 14 3 10v28l-4 13-6 10-7 7-2 1 1 6 15 34 4 8 8-24 13-38 5-15 13-38 11-33 1-1h62l14 41 12 37 13 38 14 43 1 3h-58l-7-23v-2l-42 1-7 23-1 1h-104l-3-5-7-21-7-18-1-6h-8v50h-49zm50 42-1 1v26h16l5-2 4-5 1-3v-7l-3-6-8-4zm157 8-6 23-4 14-1 8h23l-2-12-5-19-3-12z" fill="#FEFEFE"/>
<path transform="translate(369,107)" d="m0 0h1679v20h-1679z" fill="#FEFEFE"/>
<path transform="translate(230,116)" d="m0 0 7 1 15 8 12 9 18 18 11 15 7 12 7 16 5 16 3 15v38l-4 18-5 15-12 23-8 10-7 8-9 9-11 8-11 7-16 7-9 3-16 4-6 1h-34l-19-4-18-6-16-8-11-7-11-9-10-9-9-10-2-4 1-4h9l21 4h26l20-4 15-5 16-8 11-7 14-11 7-7 10-13 9-15 7-16 3-9 3-14 1-10v-25l-2-15-3-12-6-16-4-9-1-6z" fill="#FEFEFE"/>
<path transform="translate(136)" d="m0 0h25l12 2 3 3-2 5-9 6-13 8-11 8-13 12-10 12-9 14-7 14-5 13-3 12-2 13v27l3 17 7 21 10 19 10 13 16 16 17 12 11 7 4 5v5l-6 4-17 2h-18l-18-2-22-6-14-6-14-8-11-8-10-9-5-5-8-9-7-10-7-12-6-14-5-19-1-9v-35l4-17 5-14 8-16 7-11 8-10 18-18 16-11 15-8 15-6 16-4 9-2z" fill="#FEFEFE"/>
<path transform="translate(1521,151)" d="m0 0h22v164h-50l-6-9-9-15-14-23-9-15-7-11-1-1v72l-2 2-31 2-17 1-1-1v-164h51l12 20 12 19 15 24 6 10 1-72 2-1z" fill="#FEFEFE"/>
<path transform="translate(596,153)" d="m0 0h70l13 2 14 5 12 7 10 9 9 10 8 16 4 13 1 5v28l-4 15-5 12-7 11-6 7-11 9-9 5-9 4-16 4h-74zm52 48v67l11-1 11-4 7-5 6-10 2-10v-9l-2-9-5-9-8-6-11-4z" fill="#FEFEFE"/>
<path transform="translate(1548,153)" d="m0 0h54l6 30 4 19 4 23 5 24 2-7 16-86 1-3h54l-6 25-10 38-8 31-9 35-7 27-2 6h-64l-4-14-7-28-5-21-7-28-5-21-7-28z" fill="#FEFEFE"/>
<path transform="translate(1855,151)" d="m0 0h33l19 3 3 1v46l-7-1-18-4h-20l-6 2-1 6 5 5 14 6 16 8 14 10 7 9 4 10 1 4v19l-3 11-7 12-9 8-16 8-18 4h-40l-18-3-1-1v-46h8l9 2 22 3 11-1 6-3 2-3-1-5-6-4-21-9-13-8-12-11-6-12-2-8v-13l4-13 6-10 4-5 11-8 13-6z" fill="#FEFEFE"/>
<path transform="translate(1699,153)" d="m0 0h97l2 18 1 26h-48v14h31v42l-1 1h-30v15h48l-1 28-2 18h-97z" fill="#FEFEFE"/>
<path transform="translate(747,153)" d="m0 0h97l3 37v6l-1 1h-47v14h30v42l-1 1h-29v15h47l1 1-1 18-2 27h-97z" fill="#FEFEFE"/>
<path transform="translate(485,153)" d="m0 0h96l3 25v19h-48v14h31v43h-31v15h48v20l-2 22-1 4h-96z" fill="#FEFEFE"/>
<path transform="translate(382,153)" d="m0 0h91l1 4 3 30v11h-43v20h29v43h-29v52l-19 2-21 1h-12z" fill="#FEFEFE"/>
<path transform="translate(1925,153)" d="m0 0h110v47h-30v115h-51v-115h-30v-44z" fill="#FEFEFE"/>
<path transform="translate(1207,152)" d="m0 0h1v115h52l-1 19-2 29h-100v-161l12-1z" fill="#FEFEFE"/>
<path transform="translate(1328,153)" d="m0 0h51v162h-51z" fill="#FEFEFE"/>
<path transform="translate(185,37)" d="m0 0h11l11 4 8 6 5 8 3 11-1 10-4 10-6 7-8 5-7 2h-12l-9-3-8-6-6-9-2-6v-15l3-8 9-10 7-4z" fill="#FEFEFE"/>
<path transform="translate(1738,406)" d="m0 0h12l7 5 1-4h8v43l-3 12-5 6-6 3h-20l-5-3 2-6 6 1 3 1h8l7-3 3-7v-7l-3 3-5 2h-10l-6-3-5-5-3-5v-19l6-9zm7 6-8 3-4 6-1 5v7l3 8 3 3 3 1h8l5-3 3-5v-16l-4-6z" fill="#FEFEFE"/>
<path transform="translate(1253,406)" d="m0 0h11l9 6 4 8 1 4v11l-4 10-8 7-3 1h-12l-8-5v23h-7l-1-1-1-63h8l2 5 6-5zm-1 7-7 6-2 5v13l4 6 8 4 9-3 4-6 1-3v-11l-4-8-5-3z" fill="#FEFEFE"/>
<path transform="translate(505,388)" d="m0 0h12l7 3-1 6-3 1-7-2-9 1-5 5 1 7 6 5 16 8 4 6 1 3v7l-3 7-5 5-7 3h-15l-8-3v-6l1-2 11 3h8l6-3 2-3v-7l-4-5-16-8-5-5-3-7 2-9 6-7z" fill="#FEFEFE"/>
<path transform="translate(1430,406)" d="m0 0h13l8 5 4 5 3 8v11l-4 10-6 5-6 3h-13l-8-4-6-8-1-2v-18l5-8 6-5zm4 6-8 4-3 6-1 10 3 9 4 4 4 2 8-1 6-6 2-6v-9l-3-7-5-5z" fill="#FEFEFE"/>
<path transform="translate(1788,406)" d="m0 0h12l8 4 6 7 2 5v15l-5 9-8 6-3 1h-13l-6-3-7-8-2-4v-16l4-8 7-6zm4 6-6 3-4 5-1 2v15l4 6 6 4 7-1 6-4 3-6v-13l-5-8-6-3z" fill="#FEFEFE"/>
<path transform="translate(546,406)" d="m0 0h14l8 5 5 6 2 5v15l-4 8-7 6-5 2h-13l-8-5-5-6-2-5-1-8 3-12 7-8zm5 6-7 4-3 4-2 7 1 9 3 6 7 5 8-1 5-4 3-6v-13l-5-8-6-3z" fill="#FEFEFE"/>
<path transform="translate(697,406)" d="m0 0h14l8 5 5 6 2 7v12l-4 9-7 6-5 2h-13l-8-5-5-5-3-12 2-11 3-6 7-6zm5 6-7 4-3 4-2 6v7l4 9 7 5 8-1 5-4 3-6v-13l-5-8-6-3z" fill="#FEFEFE"/>
<path transform="translate(1891,406)" d="m0 0h13l8 4 6 8 2 6v12l-4 8-8 7-4 2h-13l-8-4-5-6-3-9v-9l4-10 8-7zm4 6-6 4-4 6-1 3v9l4 8 5 4 7 1 7-4 4-8v-11l-5-9-6-3z" fill="#FEFEFE"/>
<path transform="translate(1144,406)" d="m0 0h14l6 4 4 6 1 4v32h-8l-1-4-7 5h-12l-7-6-1-2v-10l4-6 10-5 13-1-3-8-4-2-10 1-6 1-1-5zm9 23-8 3-3 3v8l5 4 7-1 6-6v-11z" fill="#FEFEFE"/>
<path transform="translate(744,406)" d="m0 0h13l8 6 4 8 1 8-1 3-31 1 3 9 6 4 8 1 10-2 2 6-7 3h-16l-8-5-5-6-2-7v-10l4-11 7-6zm3 6-5 3-4 6-1 4h24l-1-7-5-5-2-1z" fill="#FEFEFE"/>
<path transform="translate(1061,406)" d="m0 0h12l8 5 4 7 1 4v9h-32l3 9 4 4 11 2 10-2 1 6-6 3h-16l-9-5-4-5-2-6v-14l4-9 5-5zm2 6-6 4-3 9h23v-6l-5-6-2-1z" fill="#FEFEFE"/>
<path transform="translate(1696,406)" d="m0 0h12l6 4 4 5 3 10-1 6h-31l2 8 5 5 10 2 11-2 1 6-6 3h-16l-8-4-5-6-3-8v-10l4-10 5-5 4-3zm2 6-6 4-3 6v3h23l-1-7-4-5z" fill="#FEFEFE"/>
<path transform="translate(891,406)" d="m0 0h11l6 4 4 6 1 4v32h-9l-1-32-2-4-4-2h-6l-5 3-2 4-1 31h-9v-45h8l1 5 6-5z" fill="#FEFEFE"/>
<path transform="translate(1533,406)" d="m0 0h13l8 6 4 9v10l-31 1 1 6 4 5 9 3 13-2 2 6-7 3h-16l-8-5-5-6-2-5v-13l4-10 7-6zm3 6-5 3-3 3-2 7h24l-1-6-5-6-2-1z" fill="#FEFEFE"/>
<path transform="translate(1359,406)" d="m0 0h14l6 4 4 6 1 4v32h-8l-1-4-5 4-2 1h-12l-6-5-2-5 1-9 6-7 7-3 13-1-2-7-5-3-10 1-5 1-1-1v-5zm9 23-8 3-3 4v6l5 5 8-1 5-6 1-3v-7l-1-1z" fill="#FEFEFE"/>
<path transform="translate(1652,406)" d="m0 0h12l8 7 2 4v35h-8l-1-1-1-32-5-5-9 1-4 4-1 32-1 1h-8l-1-45h8l1 5z" fill="#FEFEFE"/>
<path transform="translate(1291,406)" d="m0 0h14l5 3 5 6 1 3 1 34h-8l-2-3-6 4h-12l-8-7v-12l6-7 7-3 14-1-3-7-5-3-9 1-6 1-1-5 5-3zm10 23-8 3-3 2-1 7 2 4 3 2h6l7-6 1-2v-9l-1-1z" fill="#FEFEFE"/>
<path transform="translate(930,406)" d="m0 0h13l7 4 3 4 1 4 1 34h-8l-1-4-5 4-3 1h-11l-6-4-2-4v-10l4-6 7-4 11-2h5l-3-7-4-3h-7l-5 2h-4l-1-6zm9 23-8 3-4 5 1 7 5 3 7-1 5-5 1-2v-9l-1-1z" fill="#FEFEFE"/>
<path transform="translate(1564,407)" d="m0 0h9l1 32 3 5 2 1h6l6-4 2-4 1-30h8l1 45h-8l-2-6-2 4-6 3h-11l-6-4-3-5-1-5z" fill="#FEFEFE"/>
<path transform="translate(600,407)" d="m0 0h8l1 30 2 7 10 1 5-3 2-4 1-31h9v45h-7l-2-4-8 5h-11l-5-3-4-5-1-4z" fill="#FEFEFE"/>
<path transform="translate(981,406)" d="m0 0h10l6 4 4 5 1 4v33h-8l-1-29-4-8-8-1-5 3-3 5-1 30h-8l-1-45h8l1 5 6-5z" fill="#FEFEFE"/>
<path transform="translate(846,385)" d="m0 0h8l3 1v4l1-1h5l2 2v7l-2 2h-5l-3-3-1-4h-7l-3 3-2 11h10l1 1v5l-1 1h-10v38h-9v-38h-6v-7h6l1-11 3-6 5-4z" fill="#FEFEFE"/>
<path transform="translate(662,406)" d="m0 0h13l5 2-1 6-2 1-3-1h-10l-6 3-4 8v9l4 8 6 3h10l5-1 1 7-12 3-1 3 4 1 1 2v7l-5 4h-8l-3-2 1-4h8v-3l-5-2 1-5 1-1-10-5-5-6-3-10v-7l4-11 7-6z" fill="#FEFEFE"/>
<path transform="translate(1837,406)" d="m0 0h13l5 2-1 6-3 1-3-1h-9l-5 3-4 5-1 3v10l4 7 6 3h9l6-1 1 7-5 2h-15l-8-4-5-6-3-7v-12l5-10 6-5z" fill="#FEFEFE"/>
<path transform="translate(1026,406)" d="m0 0h13l5 2-1 6-3 1-2-1h-10l-7 4-3 8v7l3 8 5 3 2 1h10l5-1 1 6-2 2-4 1h-14l-8-4-5-6-2-3-1-13 2-8 6-8z" fill="#FEFEFE"/>
<path transform="translate(1496,406)" d="m0 0h12l5 2-2 7-7-2-7 1-2 3 1 4 6 4 8 4 4 5 1 2v7l-4 6-6 4h-14l-6-3 1-6 6 1 9 1 4-3v-6l-3-3-10-4-6-7v-7l3-5 5-4z" fill="#FEFEFE"/>
<path transform="translate(1185,406)" d="m0 0h13l5 3-2 6-7-2-7 1-2 2 1 6 14 7 4 5v11l-4 5-6 3h-14l-5-3 1-6 9 2 8-1 2-3-1-6-13-7-5-6v-8l4-6z" fill="#FEFEFE"/>
<path transform="translate(783,406)" d="m0 0h12l5 2-1 7-7-2-9 1v7l4 3 12 6 3 5v9l-4 6-6 3h-14l-5-2v-6l4-1 6 2 8-1 2-4-1-5-8-4-7-4-4-7 1-7 4-5z" fill="#FEFEFE"/>
<path transform="translate(581,386)" d="m0 0h9v66h-9z" fill="#FEFEFE"/>
<path transform="translate(1341,406)" d="m0 0h7v8l-8 2-4 4-1 3-1 29h-8l-1-1v-44h7l2 5z" fill="#FEFEFE"/>
<path transform="translate(1126,406)" d="m0 0h7v8l-8 2-4 4-1 2-1 29-1 1h-8v-45h7l2 5z" fill="#FEFEFE"/>
<path transform="translate(1092,407)" d="m0 0h9v45h-9z" fill="#FEFEFE"/>
<path transform="translate(1861,407)" d="m0 0h8v45h-8l-1-1v-43z" fill="#FEFEFE"/>
<path transform="translate(856,407)" d="m0 0h8v45h-8z" fill="#FEFEFE"/>
<path transform="translate(698,389)" d="m0 0 9 3h3l1-3h5l-1 7-3 3h-6l-8-3-1 4-5-1 2-8z" fill="#FEFEFE"/>
<path transform="translate(1796,388)" d="m0 0h10l-6 8-4 5h-7l2-5z" fill="#FEFEFE"/>
<path transform="translate(1094,389)" d="m0 0 6 1 1 1v7l-3 2-6-1-1-7z" fill="#FEFEFE"/>
<path transform="translate(1863,389)" d="m0 0 5 1 2 2v5l-3 3-6-1-1-1v-7z" fill="#FEFEFE"/>
</svg>
